<svg width="185" height="129" viewBox="0 0 185 129" fill="none" xmlns="http://www.w3.org/2000/svg">
<g filter="url(#filter0_d_211_532)">
<path d="M27.0921 116.618C63.2148 133.127 121.785 133.127 157.908 116.618C194.031 100.109 194.031 73.3422 157.908 56.8295C121.785 40.3169 63.2313 40.3205 27.0921 56.8295C-9.04721 73.3385 -9.01416 100.109 27.0921 116.618Z" fill="#F5F5F5"/>
<path d="M17.0224 89.544L5.28027 83.6147V61.581L17.0224 67.514V89.544Z" fill="#E0E0E0"/>
<path d="M17.0227 67.5139L33.7996 59.0408V81.0709L17.0227 89.544V67.5139Z" fill="#EBEBEB"/>
<path d="M33.7993 59.0408L17.0224 67.5139L5.28027 61.581L22.0572 53.1078L33.7993 59.0408Z" fill="#F5F5F5"/>
<path d="M18.7036 68.3595L32.1226 61.581L32.4324 61.7363V69.8987L19.0092 76.6772L18.6995 76.5218L18.7036 68.3595Z" fill="#E0E0E0"/>
<path d="M19.0093 68.5185L32.4324 61.7364V69.8987L19.0093 76.6772V68.5185Z" fill="#F5F5F5"/>
<path d="M24.2711 67.243L26.5551 66.0903C26.8483 65.9386 27.0879 66.0072 27.0879 66.2421C27.0666 66.386 27.0074 66.5235 26.9149 66.6439C26.8224 66.7643 26.6992 66.8642 26.5551 66.9358L24.2711 68.0885C23.9737 68.2402 23.7341 68.1716 23.7341 67.9367C23.7555 67.7925 23.8153 67.6546 23.9085 67.5341C24.0017 67.4136 24.1259 67.3139 24.2711 67.243Z" fill="#E0E0E0"/>
<path d="M18.394 78.6862L31.8131 71.9077V80.0701L32.1228 80.2255L18.6997 87.0039L18.394 86.8486V78.6862Z" fill="#E0E0E0"/>
<path d="M18.6995 78.8415L32.1226 72.063V80.2254L18.6995 87.0039V78.8415Z" fill="#F5F5F5"/>
<path d="M23.9616 77.5697L26.2662 76.4206C26.5636 76.2689 26.8032 76.3375 26.8032 76.5724C26.7818 76.7167 26.722 76.8545 26.6288 76.975C26.5356 77.0955 26.4114 77.1952 26.2662 77.2661L23.9822 78.4188C23.6849 78.5705 23.4453 78.5019 23.4453 78.267C23.4639 78.1238 23.5202 77.9862 23.6097 77.8652C23.6993 77.7442 23.8198 77.6431 23.9616 77.5697Z" fill="#E0E0E0"/>
<path d="M17.0224 66.2421L5.28027 60.3091V38.279L17.0224 44.2084V66.2421Z" fill="#E0E0E0"/>
<path d="M17.0227 44.2084L33.7996 35.7353V57.769L17.0227 66.2421V44.2084Z" fill="#EBEBEB"/>
<path d="M33.7993 35.7353L17.0224 44.2084L5.28027 38.279L22.0572 29.8059L33.7993 35.7353Z" fill="#F5F5F5"/>
<path d="M18.6995 45.0575L32.1226 38.279L32.4324 38.4344V46.5968L19.0092 53.3753L18.6995 53.2163V45.0575Z" fill="#E0E0E0"/>
<path d="M24.2711 43.9374L26.5509 42.7848C26.8483 42.6366 27.0879 42.7053 27.0879 42.9401C27.0658 43.0842 27.0059 43.2219 26.9127 43.3423C26.8195 43.4627 26.6957 43.5625 26.5509 43.6339L24.2711 44.7865C23.9737 44.9347 23.7341 44.8696 23.7341 44.6348C23.7559 44.4901 23.8157 44.3518 23.9088 44.2308C24.002 44.1098 24.126 44.0094 24.2711 43.9374Z" fill="#E0E0E0"/>
<path d="M18.394 55.3842L31.8131 48.6057V56.7645L32.1228 56.9198L18.6997 63.6983L18.394 63.543V55.3842Z" fill="#E0E0E0"/>
<path d="M18.6995 55.5396L32.1226 48.7611V56.9199L18.6995 63.6984V55.5396Z" fill="#F5F5F5"/>
<path d="M23.9615 54.2641L26.2661 53.1115C26.5594 52.9633 26.8031 53.032 26.8031 53.2669C26.7798 53.4106 26.7194 53.5478 26.6263 53.6681C26.5333 53.7883 26.4101 53.8883 26.2661 53.9606L23.9615 55.1024C23.6641 55.2505 23.4246 55.1819 23.4246 54.9506C23.4481 54.8079 23.5087 54.6718 23.6018 54.5528C23.6949 54.4338 23.8179 54.335 23.9615 54.2641Z" fill="#E0E0E0"/>
<path d="M18.6995 45.0575L32.1226 38.279V46.4378L18.6995 53.2163V45.0575Z" fill="#E0E0E0"/>
<path d="M38.8342 42.3114L31.4866 38.6006V45.791L38.8342 49.4982V42.3114Z" fill="#E0E0E0"/>
<path d="M23.7341 54.3797V44.2084L26.6129 42.7486L27.0879 43.3629L35.4763 39.1245V48.4467L23.7341 54.3797Z" fill="#EBEBEB"/>
<path d="M23.7341 54.3797L24.5726 45.4802L36.3147 39.5509L35.4763 48.4467L23.7341 54.3797Z" fill="#F5F5F5"/>
<path d="M25.4111 49.0899L19.0093 45.856V53.0464L25.4111 56.2767V49.0899Z" fill="#EBEBEB"/>
<path d="M25.4111 48.4467L38.8343 41.6682V49.827L25.4111 56.6055V48.4467Z" fill="#F5F5F5"/>
<path d="M30.6729 47.1713L32.9528 46.0187C33.2502 45.8705 33.4897 45.9392 33.4897 46.174C33.4674 46.318 33.4073 46.4556 33.3141 46.5759C33.221 46.6963 33.0973 46.7962 32.9528 46.8678L30.6729 48.0204C30.3755 48.1685 30.136 48.0999 30.136 47.8686C30.1577 47.724 30.2175 47.5857 30.3107 47.4647C30.4039 47.3437 30.5279 47.2433 30.6729 47.1713Z" fill="#E0E0E0"/>
<path d="M25.4112 48.4467L24.9651 48.2227V56.3815L25.4112 56.6055V48.4467Z" fill="#E0E0E0"/>
<path d="M24.9651 48.2227L38.3841 41.4406L38.8343 41.6683L25.4112 48.4468L24.9651 48.2227Z" fill="#EBEBEB"/>
<path d="M155.748 76.1967L144.002 70.2637V48.2336L155.748 54.1629V76.1967Z" fill="#E0E0E0"/>
<path d="M155.748 54.1629L172.525 45.6898V67.7235L155.748 76.1966V54.1629Z" fill="#EBEBEB"/>
<path d="M172.525 45.6898L155.748 54.1629L144.002 48.2336L160.783 39.7568L172.525 45.6898Z" fill="#F5F5F5"/>
<path d="M157.425 55.0121L170.848 48.2336L171.158 48.3889L171.154 56.5477L157.735 63.3262L157.425 63.1708V55.0121Z" fill="#E0E0E0"/>
<path d="M157.734 55.1674L171.158 48.3889L171.153 56.5477L157.734 63.3262V55.1674Z" fill="#F5F5F5"/>
<path d="M162.996 53.8919L165.276 52.7393C165.573 52.5912 165.813 52.6598 165.813 52.8911C165.791 53.0357 165.731 53.174 165.638 53.295C165.545 53.416 165.421 53.5164 165.276 53.5884L162.996 54.7411C162.699 54.8892 162.459 54.8205 162.459 54.5893C162.481 54.4446 162.541 54.3064 162.634 54.1854C162.727 54.0644 162.851 53.9639 162.996 53.8919Z" fill="#E0E0E0"/>
<path d="M157.115 65.3387L170.538 58.5566V66.719L170.848 66.8744L157.425 73.6529L157.115 73.4975V65.3387Z" fill="#E0E0E0"/>
<path d="M157.425 65.4941L170.848 58.7156V66.8744L157.425 73.6529V65.4941Z" fill="#F5F5F5"/>
<path d="M162.687 64.2187L164.971 63.066C165.264 62.9179 165.503 62.9865 165.503 63.2178C165.481 63.3619 165.422 63.4998 165.33 63.6207C165.237 63.7416 165.114 63.8423 164.971 63.9151L162.687 65.0678C162.389 65.2159 162.15 65.1473 162.15 64.9124C162.172 64.7684 162.232 64.6309 162.325 64.5105C162.418 64.3902 162.542 64.2903 162.687 64.2187Z" fill="#E0E0E0"/>
<path d="M44.0259 99.224C44.0259 99.224 44.0713 93.4934 39.9411 89.1972C36.2859 85.3924 34.3406 82.9788 35.4929 81.8659C36.6452 80.753 39.1234 80.4856 42.4647 83.5641C45.806 86.6426 46.0662 95.1699 45.6036 97.0994L44.0259 99.224Z" fill="#48D8E8"/>
<path opacity="0.2" d="M44.0259 99.224C44.0259 99.224 44.0713 93.4934 39.9411 89.1972C36.2859 85.3924 34.3406 82.9788 35.4929 81.8659C36.6452 80.753 39.1234 80.4856 42.4647 83.5641C45.806 86.6426 46.0662 95.1699 45.6036 97.0994L44.0259 99.224Z" fill="black"/>
<path d="M44.7196 93.0634C44.6726 93.0635 44.6269 93.0497 44.5901 93.0241C44.5533 92.9984 44.5276 92.9626 44.5173 92.9225C43.0717 87.0075 39.3628 83.7375 37.277 82.3139C37.2338 82.2846 37.2057 82.2416 37.1987 82.1941C37.1917 82.1467 37.2065 82.0988 37.2398 82.061C37.2741 82.023 37.324 81.9982 37.3788 81.9922C37.4337 81.9861 37.4891 81.9991 37.5331 82.0284C39.6601 83.4738 43.4475 86.8196 44.922 92.8466C44.9281 92.8696 44.9288 92.8935 44.9241 92.9167C44.9195 92.94 44.9096 92.9623 44.8949 92.9821C44.8803 93.002 44.8613 93.0191 44.839 93.0324C44.8167 93.0458 44.7915 93.055 44.7651 93.0597L44.7196 93.0634Z" fill="white"/>
<path d="M43.8688 101.352L42.1878 102.201C42.0085 101.773 41.7061 101.392 41.3097 101.095C40.9133 100.798 40.4363 100.595 39.9245 100.507C38.0866 100.145 36.1784 100.207 34.8898 98.812C33.6012 97.4173 35.1706 95.8997 34.8898 94.8736C34.6089 93.8474 34.4272 93.5511 32.1225 92.525C29.8179 91.4988 28.9092 89.7969 30.6439 88.6443C32.3786 87.4917 35.1872 88.3372 36.8888 89.367C38.4005 90.2703 39.8378 90.5088 41.527 90.693C43.2163 90.8773 45.967 91.6975 45.5457 95.1301C45.2698 97.2548 44.707 99.3434 43.8688 101.352Z" fill="#48D8E8"/>
<path d="M37.4174 96.8428C37.3734 96.8425 37.3307 96.8301 37.2951 96.8074C37.2595 96.7848 37.233 96.7529 37.2192 96.7164C37.2036 96.6704 37.209 96.6208 37.2345 96.5783C37.26 96.5358 37.3034 96.5037 37.3555 96.4887C37.5042 96.449 41.0727 95.4589 42.5885 96.5212C42.6261 96.5523 42.649 96.5946 42.6527 96.6397C42.6564 96.6849 42.6406 96.7296 42.6084 96.765C42.5762 96.8005 42.5299 96.824 42.4788 96.8311C42.4277 96.8381 42.3755 96.8281 42.3324 96.8031C40.9942 95.8636 37.5166 96.8247 37.4794 96.8356L37.4174 96.8428Z" fill="white"/>
<path d="M44.0547 101.078C44.0045 101.078 43.9559 101.062 43.9185 101.032C43.8811 101.003 43.8575 100.962 43.8524 100.919C42.9313 93.3091 32.453 89.6994 32.3497 89.6633C32.3241 89.6549 32.3007 89.6421 32.2808 89.6257C32.2609 89.6093 32.2449 89.5896 32.2337 89.5678C32.2226 89.5459 32.2165 89.5224 32.2159 89.4984C32.2152 89.4745 32.22 89.4507 32.23 89.4284C32.2503 89.3847 32.289 89.3494 32.3382 89.3299C32.3874 89.3104 32.4433 89.3081 32.4943 89.3237C32.6058 89.3634 43.3154 93.0489 44.2613 100.886C44.2671 100.934 44.2512 100.981 44.2172 101.018C44.1831 101.055 44.1337 101.079 44.0795 101.085L44.0547 101.078Z" fill="white"/>
<path d="M146.785 96.355C146.831 96.2286 148.603 88.2505 146.785 82.5921C145.133 77.4035 142.977 75.4884 139.904 75.0657C136.831 74.6429 135.497 76.5796 137.129 79.2029C138.76 81.8261 142.688 85.3057 143.65 91.1664C144.063 93.58 144.377 95.6757 144.377 95.6757L146.785 96.355Z" fill="#48D8E8"/>
<path opacity="0.2" d="M146.785 96.355C146.831 96.2286 148.603 88.2505 146.785 82.5921C145.133 77.4035 142.977 75.4884 139.904 75.0657C136.831 74.6429 135.497 76.5796 137.129 79.2029C138.76 81.8261 142.688 85.3057 143.65 91.1664C144.063 93.58 144.377 95.6757 144.377 95.6757L146.785 96.355Z" fill="black"/>
<path d="M145.749 91.7734C145.722 91.772 145.695 91.766 145.671 91.7556C145.646 91.7452 145.624 91.7307 145.606 91.7129C145.588 91.6951 145.574 91.6744 145.566 91.6519C145.557 91.6294 145.553 91.6056 145.555 91.5819C145.968 85.1214 143.556 79.3546 139.231 76.5254C139.187 76.4967 139.159 76.4539 139.151 76.4065C139.143 76.359 139.157 76.3108 139.19 76.2725C139.223 76.235 139.272 76.2102 139.326 76.2035C139.38 76.1967 139.435 76.2085 139.479 76.2364C143.911 79.127 146.397 85.0238 145.964 91.6036C145.96 91.6509 145.936 91.6952 145.896 91.7269C145.856 91.7587 145.803 91.7754 145.749 91.7734Z" fill="white"/>
<path d="M151.539 100.51C151.304 99.0252 152.278 96.7995 154.595 96.2719C156.912 95.7444 157.945 94.5809 157.111 93.309C156.276 92.0372 156.471 90.8701 158.573 90.3426C160.675 89.815 162.517 88.8973 161.307 86.9533C160.427 85.5478 160.233 84.6372 162.389 81.8694C164.178 79.5714 162.715 78.2237 160.477 78.4766C158.238 78.7295 156.855 81.0637 155.455 81.4539C154.054 81.8442 153.732 79.7629 151.886 80.6951C150.04 81.6274 150.151 84.0157 150.094 85.6814C150.036 87.3472 149.912 87.7229 148.243 87.5206C146.575 87.3183 144.939 87.5567 144.976 91.0869C145.005 94.1148 146.851 97.8654 146.851 97.8654L151.539 100.51Z" fill="#48D8E8"/>
<path d="M148.611 98.252H148.59C148.535 98.2466 148.484 98.2222 148.45 98.1843C148.415 98.1464 148.398 98.098 148.404 98.0497C149.569 88.9478 158.498 81.2697 160.828 79.7123C160.872 79.6831 160.927 79.6703 160.982 79.6767C161.036 79.6832 161.086 79.7083 161.119 79.7467C161.152 79.785 161.167 79.8334 161.16 79.8811C161.152 79.9289 161.124 79.9722 161.08 80.0014C158.779 81.537 149.965 89.1141 148.817 98.0894C148.811 98.1338 148.787 98.1748 148.749 98.2047C148.711 98.2346 148.662 98.2514 148.611 98.252Z" fill="white"/>
<path d="M152.683 88.5215C152.641 88.5212 152.6 88.5101 152.566 88.4895C152.531 88.4689 152.504 88.4398 152.489 88.4058C152.471 88.3603 152.474 88.3105 152.497 88.2668C152.52 88.2231 152.562 88.1888 152.613 88.171C155.942 87.087 159.717 87.6001 159.878 87.6218C159.931 87.6297 159.979 87.6558 160.011 87.6944C160.042 87.7329 160.056 87.7808 160.047 87.8277C160.037 87.8743 160.007 87.9159 159.964 87.9441C159.92 87.9722 159.866 87.9849 159.812 87.9795C159.775 87.9795 155.983 87.4592 152.757 88.5106C152.733 88.5177 152.708 88.5214 152.683 88.5215Z" fill="white"/>
<path d="M149.718 93.9919C149.689 93.9916 149.66 93.986 149.634 93.9755C149.608 93.9649 149.584 93.9495 149.565 93.9305C148.181 92.5201 147.242 90.8172 146.843 88.9912C146.839 88.9677 146.84 88.9437 146.847 88.9206C146.853 88.8976 146.865 88.8758 146.881 88.8567C146.897 88.8376 146.917 88.8214 146.941 88.8091C146.964 88.7969 146.99 88.7887 147.017 88.7852C147.044 88.7816 147.071 88.7827 147.097 88.7884C147.124 88.7941 147.148 88.8043 147.17 88.8184C147.192 88.8325 147.211 88.8502 147.225 88.8705C147.239 88.8909 147.248 88.9135 147.252 88.937C147.647 90.6911 148.55 92.3271 149.875 93.6884C149.901 93.715 149.917 93.7475 149.923 93.7821C149.928 93.8166 149.923 93.8518 149.906 93.8836C149.89 93.9154 149.863 93.9425 149.83 93.9617C149.797 93.9808 149.758 93.9913 149.718 93.9919Z" fill="white"/>
<path d="M43.8687 45.4297V101.356L109.299 68.3089L109.295 17.4666L60.6455 42.0404L58.9645 37.802L43.8687 45.4297Z" fill="#48D8E8"/>
<path opacity="0.7" d="M43.8687 45.4297V101.356L109.299 68.3089L109.295 17.4666L60.6455 42.0404L58.9645 37.802L43.8687 45.4297Z" fill="black"/>
<path d="M43.8687 101.356L47.2224 50.5135L112.653 17.4666L109.299 68.3089L43.8687 101.356Z" fill="#E0E0E0"/>
<path d="M43.8687 101.356L48.8992 51.3626L114.33 18.3121L109.299 68.3088L43.8687 101.356Z" fill="#48D8E8"/>
<path opacity="0.7" d="M43.8687 101.356L48.8992 51.3626L114.33 18.3121L109.299 68.3088L43.8687 101.356Z" fill="black"/>
<path d="M53.9343 50.5135V106.443L119.365 73.3927V22.5504L70.7112 47.1243L69.0343 42.8859L53.9343 50.5135Z" fill="#48D8E8"/>
<path opacity="0.5" d="M53.9343 50.5135V106.443L119.365 73.3927V22.5504L70.7112 47.1243L69.0343 42.8859L53.9343 50.5135Z" fill="black"/>
<path d="M53.9343 106.443L57.288 55.5974L122.719 22.5504L119.365 73.3927L53.9343 106.443Z" fill="#E0E0E0"/>
<path d="M53.9343 106.443L58.9649 56.4465L124.396 23.396L119.365 73.3927L53.9343 106.443Z" fill="#48D8E8"/>
<path opacity="0.5" d="M53.9343 106.443L58.9649 56.4465L124.396 23.396L119.365 73.3927L53.9343 106.443Z" fill="black"/>
<path d="M109.283 124.239C97.5369 118.306 86.6415 111.856 81.6687 104.29L96.7852 96.6549L109.283 124.239Z" fill="#E0E0E0"/>
<path d="M65.6763 56.4465V112.373L131.107 79.3257V28.4834L82.4531 53.0573L80.7763 48.8189L65.6763 56.4465Z" fill="#48D8E8"/>
<path opacity="0.2" d="M65.6763 56.4465V112.373L131.107 79.3257V28.4834L82.4531 53.0573L80.7763 48.8189L65.6763 56.4465Z" fill="black"/>
<path d="M84.5267 72.9808C84.3614 72.9808 84.3367 72.8146 84.3367 72.717V25.0219C84.3499 24.8369 84.412 24.6571 84.5181 24.4966C84.6241 24.3361 84.7713 24.1993 84.9479 24.0969L132.173 0.249372C132.237 0.214083 132.311 0.194155 132.387 0.191559C132.553 0.191559 132.577 0.35777 132.577 0.455329V48.1504C132.564 48.336 132.503 48.5165 132.396 48.6776C132.29 48.8387 132.143 48.9761 131.966 49.0791L84.7414 72.9266C84.6762 72.9602 84.6023 72.9788 84.5267 72.9808Z" fill="white"/>
<path d="M132.363 0.35777C132.366 0.384187 132.366 0.410846 132.363 0.437263V48.1324C132.349 48.2862 132.296 48.4355 132.209 48.5692C132.121 48.703 132 48.8179 131.855 48.9056L84.6299 72.7532L84.5473 72.7857C84.5418 72.7594 84.5418 72.7325 84.5473 72.7062V25.0111C84.5615 24.8579 84.6144 24.7094 84.7023 24.5763C84.7901 24.4431 84.9107 24.3288 85.0553 24.2415L132.28 0.393902C132.306 0.377963 132.336 0.366895 132.367 0.361384M132.392 5.77235e-05C132.279 0.00298706 132.169 0.0316407 132.074 0.0831641L84.8488 23.9307C84.6412 24.05 84.4684 24.2102 84.3444 24.3985C84.2203 24.5867 84.1483 24.7978 84.1343 25.0147V72.7098C84.1343 72.9917 84.2954 73.1543 84.5473 73.1543C84.6598 73.1517 84.7696 73.123 84.8653 73.0712L132.09 49.2236C132.299 49.1051 132.472 48.9451 132.596 48.7567C132.72 48.5683 132.792 48.3568 132.805 48.1396V0.444491C132.805 0.162656 132.644 -0.00355554 132.392 5.77235e-05Z" fill="#48D8E8"/>
<path opacity="0.7" d="M132.363 0.35777C132.366 0.384187 132.366 0.410846 132.363 0.437263V48.1324C132.349 48.2862 132.296 48.4355 132.209 48.5692C132.121 48.703 132 48.8179 131.855 48.9056L84.6299 72.7532L84.5473 72.7857C84.5418 72.7594 84.5418 72.7325 84.5473 72.7062V25.0111C84.5615 24.8579 84.6144 24.7094 84.7023 24.5763C84.7901 24.4431 84.9107 24.3288 85.0553 24.2415L132.28 0.393902C132.306 0.377963 132.336 0.366895 132.367 0.361384M132.392 5.77235e-05C132.279 0.00298706 132.169 0.0316407 132.074 0.0831641L84.8488 23.9307C84.6412 24.05 84.4684 24.2102 84.3444 24.3985C84.2203 24.5867 84.1483 24.7978 84.1343 25.0147V72.7098C84.1343 72.9917 84.2954 73.1543 84.5473 73.1543C84.6598 73.1517 84.7696 73.123 84.8653 73.0712L132.09 49.2236C132.299 49.1051 132.472 48.9451 132.596 48.7567C132.72 48.5683 132.792 48.3568 132.805 48.1396V0.444491C132.805 0.162656 132.644 -0.00355554 132.392 5.77235e-05Z" fill="white"/>
<path d="M89.1646 26.8322L105.941 18.3591V35.3053L89.1646 43.7784V26.8322Z" fill="#48D8E8"/>
<path opacity="0.8" d="M89.1646 26.8322L105.941 18.3591V35.3053L89.1646 43.7784V26.8322Z" fill="white"/>
<path d="M103.427 22.583V27.6777L102.898 27.9342V26.3769C102.898 25.517 102.101 25.2243 101.109 25.7229L94.0014 29.3181C93.0143 29.8167 92.213 30.9188 92.213 31.7787V33.3361L91.6885 33.6107V28.5268L103.427 22.583Z" fill="white"/>
<path d="M100.197 35.5546C99.3375 35.9882 98.6395 35.5329 98.6395 34.532V26.3769L96.4794 27.4031V35.6232C96.4794 36.6205 95.7814 37.7912 94.9223 38.214L93.3611 39.0016V39.5436L101.75 35.3053V34.7669L100.197 35.5546Z" fill="white"/>
<path d="M109.283 17.5244C109.283 17.9941 109.766 18.1278 110.357 17.8315L126.679 9.57521C126.969 9.4316 127.217 9.23127 127.403 8.98992C127.589 8.74858 127.709 8.47276 127.753 8.1841C127.753 7.71799 127.27 7.58068 126.679 7.88058L110.369 16.1188C110.075 16.2622 109.823 16.4641 109.634 16.7082C109.446 16.9524 109.325 17.232 109.283 17.5244Z" fill="#455A64"/>
<path d="M109.283 22.583C109.283 23.0527 109.766 23.19 110.357 22.8901L126.667 14.6519C126.957 14.5083 127.204 14.3079 127.391 14.0666C127.577 13.8252 127.697 13.5494 127.741 13.2608C127.741 12.7946 127.258 12.6573 126.667 12.9572L110.357 21.1955C110.068 21.3387 109.82 21.5385 109.634 21.7792C109.448 22.0199 109.328 22.295 109.283 22.583Z" fill="#455A64"/>
<path d="M109.283 27.6777C109.283 28.1474 109.766 28.2847 110.357 27.9848L126.667 19.7466C126.956 19.6033 127.203 19.4035 127.39 19.1629C127.576 18.9222 127.696 18.6471 127.741 18.3591C127.741 17.8893 127.258 17.752 126.667 18.0519L110.357 26.2902C110.068 26.4334 109.82 26.6332 109.634 26.8739C109.448 27.1146 109.328 27.3896 109.283 27.6777Z" fill="#455A64"/>
<path d="M109.283 32.7616C109.283 33.2313 109.766 33.3686 110.357 33.0687L126.667 24.8304C126.956 24.6872 127.203 24.4874 127.39 24.2467C127.576 24.0061 127.696 23.731 127.741 23.4429C127.741 22.9732 127.258 22.8359 126.667 23.1358L110.357 31.3741C110.068 31.5173 109.82 31.7171 109.634 31.9578C109.448 32.1984 109.328 32.4735 109.283 32.7616Z" fill="#455A64"/>
<path d="M89.1646 48.0168C89.1646 48.4865 89.6437 48.6238 90.2384 48.3239L126.679 29.8962C126.969 29.7534 127.216 29.5538 127.403 29.313C127.589 29.0722 127.709 28.7969 127.753 28.5087C127.753 28.039 127.27 27.9053 126.679 28.2016L90.2384 46.6293C89.9487 46.7719 89.7009 46.9714 89.5145 47.2122C89.3281 47.4531 89.2083 47.7285 89.1646 48.0168Z" fill="#455A64"/>
<path d="M89.1646 53.1006C89.1646 53.5704 89.6437 53.7077 90.2384 53.4078L126.679 35.0018C126.969 34.8582 127.216 34.6578 127.403 34.4165C127.589 34.1752 127.709 33.8993 127.753 33.6107C127.753 33.1446 127.27 33.0073 126.679 33.3072L90.2384 51.7131C89.9487 51.8557 89.7009 52.0553 89.5145 52.2961C89.3281 52.5369 89.2083 52.8124 89.1646 53.1006Z" fill="#455A64"/>
<path d="M89.1646 58.1881C89.1646 58.6542 89.6437 58.7915 90.2384 58.4916L126.679 40.0856C126.969 39.942 127.216 39.7417 127.403 39.5004C127.589 39.259 127.709 38.9832 127.753 38.6945C127.753 38.2284 127.27 38.0911 126.679 38.391L90.2384 56.797C89.9482 56.94 89.7 57.1401 89.5136 57.3816C89.3272 57.623 89.2077 57.8992 89.1646 58.1881Z" fill="#455A64"/>
<path d="M65.6763 112.373L77.4184 67.4634L142.849 34.4128L131.107 79.3257L65.6763 112.373Z" fill="#48D8E8"/>
<path d="M81.6851 70.9791V104.29L96.7851 96.6622V63.3551L81.6851 70.9791Z" fill="#48D8E8"/>
<path opacity="0.2" d="M81.6851 70.9791V104.29L96.7851 96.6622V63.3551L81.6851 70.9791Z" fill="black"/>
<path d="M109.312 124.022C108.027 123.184 95.645 114.906 89.3506 103.065C82.6514 90.4763 82.6597 75.792 82.6597 70.2673V70.0938L127.547 47.4242C127.547 52.9995 127.547 67.7055 134.275 80.3374C140.425 91.8999 152.332 100.073 154.22 101.323L109.312 124.022Z" fill="white"/>
<path d="M127.34 47.7494C127.34 53.5595 127.469 67.9837 134.089 80.4278C140.033 91.5928 151.333 99.6214 153.848 101.316L109.325 123.805C107.586 122.66 95.6701 114.519 89.5409 103.003C82.8499 90.451 82.8499 75.7956 82.8499 70.2781V70.2095L127.324 47.7458M127.737 47.1207L82.4369 70.0035C82.4369 75.203 82.313 90.3101 89.1485 103.155C95.8766 115.762 109.283 124.239 109.283 124.239L154.596 101.352C154.596 101.352 141.173 92.8755 134.465 80.2688C127.625 67.4236 127.753 52.3166 127.753 47.1171L127.737 47.1207Z" fill="#48D8E8"/>
<path opacity="0.7" d="M127.34 47.7494C127.34 53.5595 127.469 67.9837 134.089 80.4278C140.033 91.5928 151.333 99.6214 153.848 101.316L109.325 123.805C107.586 122.66 95.6701 114.519 89.5409 103.003C82.8499 90.451 82.8499 75.7956 82.8499 70.2781V70.2095L127.324 47.7458M127.737 47.1207L82.4369 70.0035C82.4369 75.203 82.313 90.3101 89.1485 103.155C95.8766 115.762 109.283 124.239 109.283 124.239L154.596 101.352C154.596 101.352 141.173 92.8755 134.465 80.2688C127.625 67.4236 127.753 52.3166 127.753 47.1171L127.737 47.1207Z" fill="white"/>
<path d="M122.628 54.7952L108.304 62.0218C108.018 62.1598 107.773 62.3564 107.592 62.5949C107.411 62.8333 107.298 63.1065 107.263 63.3912C107.284 63.8501 107.784 63.9802 108.374 63.6803L122.702 56.4537C122.985 56.317 123.227 56.123 123.408 55.8879C123.588 55.6529 123.701 55.3836 123.739 55.1024C123.714 54.6254 123.223 54.4953 122.628 54.7952Z" fill="#455A64"/>
<path d="M122.933 59.7274L108.61 66.9539C108.327 67.0872 108.086 67.281 107.912 67.5172C107.737 67.7535 107.633 68.0246 107.61 68.3053C107.656 68.7497 108.176 68.8689 108.767 68.569L123.094 61.3425C123.376 61.2098 123.615 61.0164 123.788 60.7805C123.96 60.5447 124.062 60.2743 124.082 59.9947C124.04 59.5467 123.528 59.4383 122.933 59.7274Z" fill="#455A64"/>
<path d="M123.507 64.5221L109.18 71.7487C108.589 72.0486 108.159 72.6448 108.23 73.0747C108.3 73.5047 108.841 73.6167 109.436 73.3168L123.763 66.0903C124.354 65.7904 124.775 65.1978 124.701 64.7678C124.627 64.3379 124.098 64.2222 123.507 64.5221Z" fill="#455A64"/>
<path d="M124.366 69.1724L110.039 76.399C109.448 76.6989 109.039 77.2842 109.138 77.7034C109.237 78.1225 109.799 78.2165 110.377 77.9166L124.701 70.69C125.296 70.3901 125.692 69.8084 125.593 69.3892C125.494 68.9701 124.978 68.8725 124.366 69.1724Z" fill="#455A64"/>
<path d="M125.531 73.6674L111.204 80.8939C110.613 81.1938 110.229 81.7647 110.378 82.1658C110.526 82.5668 111.092 82.6572 111.683 82.3573L126.01 75.1307C126.605 74.8308 126.977 74.2635 126.836 73.8589C126.696 73.4542 126.122 73.3674 125.531 73.6674Z" fill="#455A64"/>
<path d="M127.043 77.9996L92.1262 95.636C91.5356 95.9359 91.1763 96.4923 91.3374 96.8789C91.4984 97.2656 92.1138 97.3378 92.7045 97.0379L127.621 79.4016C128.216 79.1017 128.559 78.5488 128.398 78.1586C128.237 77.7684 127.613 77.6997 127.043 77.9996Z" fill="#455A64"/>
<path d="M128.881 82.1368L93.9681 99.7732C93.3733 100.073 93.0471 100.615 93.2453 100.984C93.4436 101.352 94.0713 101.41 94.6744 101.11L129.591 83.4737C130.186 83.1738 130.504 82.6319 130.306 82.2633C130.107 81.8948 129.475 81.8406 128.881 82.1368Z" fill="#455A64"/>
<path d="M131.173 86.0789L96.2564 103.715C95.6616 104.015 95.3684 104.543 95.6038 104.893C95.8392 105.244 96.5124 105.28 97.1072 104.98L131.999 87.3435C132.59 87.0472 132.875 86.5233 132.639 86.1728C132.404 85.8223 131.751 85.779 131.173 86.0789Z" fill="#455A64"/>
<path d="M133.845 89.8078L98.9329 107.441C98.3381 107.74 98.0738 108.257 98.3423 108.586C98.6107 108.915 99.317 108.947 99.9117 108.644L134.824 91.0074C135.419 90.7075 135.675 90.198 135.407 89.8656C135.138 89.5332 134.44 89.5079 133.845 89.8078Z" fill="#455A64"/>
<path d="M136.893 93.3524L101.977 110.985C101.386 111.285 101.151 111.787 101.448 112.102C101.745 112.416 102.476 112.43 103.071 112.131L137.988 94.487C138.578 94.1871 138.814 93.6921 138.508 93.3777C138.203 93.0634 137.488 93.0417 136.893 93.3524Z" fill="#455A64"/>
<path d="M140.26 96.7272L105.355 114.36C104.76 114.66 104.529 115.151 104.876 115.444C105.223 115.737 105.958 115.744 106.549 115.444L141.466 97.8076C142.06 97.5077 142.267 97.0235 141.936 96.7236C141.606 96.4237 140.863 96.4309 140.26 96.7272Z" fill="#455A64"/>
<path d="M143.977 99.9539L109.06 117.587C108.47 117.886 108.275 118.367 108.647 118.653C109.019 118.938 109.779 118.927 110.374 118.627L145.261 100.991C145.852 100.691 146.038 100.221 145.674 99.9322C145.311 99.6431 144.555 99.654 143.977 99.9539Z" fill="#455A64"/>
<path d="M103.113 64.6558L86.6414 72.9663C86.8231 78.1875 87.5046 85.7176 89.9992 93.3018L106.475 84.9913C103.976 77.407 103.294 69.8734 103.113 64.6558Z" fill="#48D8E8"/>
<path opacity="0.8" d="M103.113 64.6558L86.6414 72.9663C86.8231 78.1875 87.5046 85.7176 89.9992 93.3018L106.475 84.9913C103.976 77.407 103.294 69.8734 103.113 64.6558Z" fill="white"/>
<path d="M93.3571 71.8173C93.3793 71.4803 93.3193 71.143 93.1812 70.8278C93.0431 70.5126 92.8299 70.2267 92.5558 69.989L86.6414 72.9736C86.6909 74.3538 86.7735 75.8967 86.9181 77.5588C87.6874 77.6362 88.4656 77.5104 89.1525 77.1975C91.4778 76.2653 93.3571 73.848 93.3571 71.8173Z" fill="#48D8E8"/>
<path opacity="0.6" d="M93.3571 71.8173C93.3793 71.4803 93.3193 71.143 93.1812 70.8278C93.0431 70.5126 92.8299 70.2267 92.5558 69.989L86.6414 72.9736C86.6909 74.3538 86.7735 75.8967 86.9181 77.5588C87.6874 77.6362 88.4656 77.5104 89.1525 77.1975C91.4778 76.2653 93.3571 73.848 93.3571 71.8173Z" fill="white"/>
<path d="M105.074 80.005C103.976 78.7946 101.741 75.0549 100.787 73.4253C100.75 73.3609 100.691 73.3078 100.619 73.2729C100.546 73.2379 100.464 73.2228 100.381 73.2294C100.299 73.236 100.221 73.2641 100.157 73.3099C100.093 73.3558 100.047 73.4174 100.023 73.4867C98.9909 76.5733 98.3918 79.7583 98.2389 82.9715C96.8633 82.0162 95.6808 80.8656 94.7406 79.5678C94.7005 79.5175 94.6448 79.4783 94.5801 79.4548C94.5154 79.4313 94.4443 79.4244 94.3753 79.4351C94.3063 79.4457 94.2422 79.4734 94.1906 79.5148C94.1389 79.5563 94.1019 79.6098 94.0839 79.669C92.2831 85.7357 93.1876 91.7048 93.1876 91.7048L106.474 84.9913C105.921 83.3148 105.463 81.6455 105.074 80.005Z" fill="#48D8E8"/>
<path opacity="0.6" d="M105.074 80.005C103.976 78.7946 101.741 75.0549 100.787 73.4253C100.75 73.3609 100.691 73.3078 100.619 73.2729C100.546 73.2379 100.464 73.2228 100.381 73.2294C100.299 73.236 100.221 73.2641 100.157 73.3099C100.093 73.3558 100.047 73.4174 100.023 73.4867C98.9909 76.5733 98.3918 79.7583 98.2389 82.9715C96.8633 82.0162 95.6808 80.8656 94.7406 79.5678C94.7005 79.5175 94.6448 79.4783 94.5801 79.4548C94.5154 79.4313 94.4443 79.4244 94.3753 79.4351C94.3063 79.4457 94.2422 79.4734 94.1906 79.5148C94.1389 79.5563 94.1019 79.6098 94.0839 79.669C92.2831 85.7357 93.1876 91.7048 93.1876 91.7048L106.474 84.9913C105.921 83.3148 105.463 81.6455 105.074 80.005Z" fill="white"/>
</g>
<defs>
<filter id="filter0_d_211_532" x="-4" y="0" width="193" height="137" filterUnits="userSpaceOnUse" color-interpolation-filters="sRGB">
<feFlood flood-opacity="0" result="BackgroundImageFix"/>
<feColorMatrix in="SourceAlpha" type="matrix" values="0 0 0 0 0 0 0 0 0 0 0 0 0 0 0 0 0 0 127 0" result="hardAlpha"/>
<feOffset dy="4"/>
<feGaussianBlur stdDeviation="2"/>
<feComposite in2="hardAlpha" operator="out"/>
<feColorMatrix type="matrix" values="0 0 0 0 0 0 0 0 0 0 0 0 0 0 0 0 0 0 0.25 0"/>
<feBlend mode="normal" in2="BackgroundImageFix" result="effect1_dropShadow_211_532"/>
<feBlend mode="normal" in="SourceGraphic" in2="effect1_dropShadow_211_532" result="shape"/>
</filter>
</defs>
</svg>
